<?xml version="1.0" encoding="UTF-8"?>
<svg id="Layer_2" data-name="Layer 2" xmlns="http://www.w3.org/2000/svg" viewBox="0 0 74.42 76.42">
  <defs>
    <style>
      .cls-1 {
        fill: currentColor;
      }
    </style>
  </defs>
  <g id="Layer_1-2" data-name="Layer 1">
    <g>
      <polygon class="cls-1" points="59.79 34.73 62.87 37.58 40.37 37.58 40.37 15.09 43.23 18.16 43.96 17.48 39.87 13.08 35.78 17.48 36.51 18.16 39.37 15.09 39.37 37.58 16.88 37.58 19.95 34.73 19.27 33.99 14.87 38.08 19.27 42.17 19.95 41.44 16.88 38.58 39.37 38.58 39.37 61.08 36.51 58 35.78 58.69 39.87 63.08 43.96 58.69 43.23 58 40.37 61.08 40.37 38.58 62.86 38.58 59.79 41.44 60.47 42.17 64.87 38.08 60.47 33.99 59.79 34.73"/>
      <path class="cls-1" d="m37.82,4.63c0-1.34-.02-2.31-.08-3.33h.04c.41.86.95,1.79,1.51,2.69l2.57,4.1h1.06V0h-.98v3.38c0,1.26.02,2.24.12,3.32h-.02c-.38-.82-.85-1.67-1.45-2.61l-2.59-4.09h-1.14v8.08h.98v-3.45Z"/>
      <path class="cls-1" d="m40.25,71.72c-1.12-.43-1.61-.8-1.61-1.56,0-.55.42-1.21,1.52-1.21.73,0,1.27.24,1.54.38l.29-.85c-.36-.2-.96-.4-1.79-.4-1.57,0-2.61.94-2.61,2.19,0,1.14.82,1.82,2.13,2.29,1.09.42,1.52.85,1.52,1.61,0,.82-.62,1.38-1.69,1.38-.72,0-1.4-.24-1.87-.53l-.26.88c.43.29,1.28.52,2.06.52,1.91,0,2.83-1.08,2.83-2.33s-.7-1.85-2.06-2.38Z"/>
      <path class="cls-1" d="m7.74,38.12c-.25,1.01-.48,1.91-.65,2.79h-.02c-.12-.85-.34-1.81-.56-2.77l-.98-4.1h-1.09l-1.08,4.08c-.28,1.04-.53,2-.66,2.81h-.02c-.14-.78-.36-1.79-.6-2.79l-.96-4.09H0l2.05,8.08h1.09l1.15-4.21c.3-1.04.48-1.83.62-2.64h.02c.11.82.28,1.61.53,2.64l1.02,4.21h1.09l2.29-8.08h-1.07l-1.07,4.08Z"/>
      <polygon class="cls-1" points="70.92 41.25 70.92 38.33 74.06 38.33 74.06 37.47 70.92 37.47 70.92 34.92 74.24 34.92 74.24 34.04 69.87 34.04 69.87 42.12 74.42 42.12 74.42 41.25 70.92 41.25"/>
    </g>
  </g>
</svg>